<mxfile host="app.diagrams.net" modified="2020-12-15T08:44:08.838Z" agent="5.0 (Windows NT 6.1; Win64; x64) AppleWebKit/537.36 (KHTML, like Gecko) Chrome/87.0.4280.88 Safari/537.36" etag="Km0O9kJcCqaCX85Tx7fT" version="14.0.1" type="github">
  <diagram id="dEbLw4B4h4xdq2Dzzx0g" name="Page-1">
    <mxGraphModel dx="1422" dy="762" grid="1" gridSize="10" guides="1" tooltips="1" connect="1" arrows="1" fold="1" page="1" pageScale="1" pageWidth="827" pageHeight="1169" math="0" shadow="0">
      <root>
        <mxCell id="0" />
        <mxCell id="1" parent="0" />
        <mxCell id="9fNEeSI4DMtGbSL5goI3-14" style="edgeStyle=orthogonalEdgeStyle;rounded=0;sketch=1;orthogonalLoop=1;jettySize=auto;html=1;entryX=0.875;entryY=0.5;entryDx=0;entryDy=0;entryPerimeter=0;" edge="1" parent="1" source="9fNEeSI4DMtGbSL5goI3-7" target="9fNEeSI4DMtGbSL5goI3-11">
          <mxGeometry relative="1" as="geometry">
            <Array as="points">
              <mxPoint x="425" y="809" />
            </Array>
          </mxGeometry>
        </mxCell>
        <mxCell id="9fNEeSI4DMtGbSL5goI3-16" value="&lt;font style=&quot;font-size: 14px&quot;&gt;注册服务&lt;/font&gt;" style="edgeLabel;html=1;align=center;verticalAlign=middle;resizable=0;points=[];" vertex="1" connectable="0" parent="9fNEeSI4DMtGbSL5goI3-14">
          <mxGeometry x="-0.4469" y="-2" relative="1" as="geometry">
            <mxPoint as="offset" />
          </mxGeometry>
        </mxCell>
        <mxCell id="9fNEeSI4DMtGbSL5goI3-7" value="" style="rounded=0;whiteSpace=wrap;html=1;shadow=0;sketch=0;fillColor=none;dashed=1;" vertex="1" parent="1">
          <mxGeometry x="330" y="495" width="190" height="230" as="geometry" />
        </mxCell>
        <mxCell id="9fNEeSI4DMtGbSL5goI3-3" value="" style="edgeStyle=orthogonalEdgeStyle;rounded=0;orthogonalLoop=1;jettySize=auto;html=1;sketch=1;" edge="1" parent="1" source="9fNEeSI4DMtGbSL5goI3-1" target="9fNEeSI4DMtGbSL5goI3-2">
          <mxGeometry relative="1" as="geometry" />
        </mxCell>
        <mxCell id="9fNEeSI4DMtGbSL5goI3-1" value="&lt;b&gt;&lt;font style=&quot;font-size: 14px&quot;&gt;客户端&lt;/font&gt;&lt;/b&gt;" style="ellipse;whiteSpace=wrap;html=1;aspect=fixed;sketch=1;fillColor=#fff2cc;strokeColor=#d6b656;" vertex="1" parent="1">
          <mxGeometry x="50" y="570" width="80" height="80" as="geometry" />
        </mxCell>
        <mxCell id="9fNEeSI4DMtGbSL5goI3-8" value="" style="edgeStyle=orthogonalEdgeStyle;rounded=0;sketch=1;orthogonalLoop=1;jettySize=auto;html=1;" edge="1" parent="1" source="9fNEeSI4DMtGbSL5goI3-2" target="9fNEeSI4DMtGbSL5goI3-7">
          <mxGeometry relative="1" as="geometry" />
        </mxCell>
        <mxCell id="9fNEeSI4DMtGbSL5goI3-2" value="&lt;b&gt;&lt;font style=&quot;font-size: 14px&quot;&gt;Gateway&lt;/font&gt;&lt;/b&gt;" style="whiteSpace=wrap;html=1;strokeColor=#82b366;fillColor=#d5e8d4;sketch=1;shadow=0;" vertex="1" parent="1">
          <mxGeometry x="170" y="560" width="80" height="100" as="geometry" />
        </mxCell>
        <mxCell id="9fNEeSI4DMtGbSL5goI3-5" value="微服务" style="whiteSpace=wrap;html=1;shadow=0;strokeColor=#0e8088;fillColor=#b0e3e6;sketch=1;" vertex="1" parent="1">
          <mxGeometry x="360" y="510" width="120" height="60" as="geometry" />
        </mxCell>
        <mxCell id="9fNEeSI4DMtGbSL5goI3-9" value="微服务" style="whiteSpace=wrap;html=1;shadow=0;strokeColor=#0e8088;fillColor=#b0e3e6;sketch=1;" vertex="1" parent="1">
          <mxGeometry x="360" y="585" width="120" height="60" as="geometry" />
        </mxCell>
        <mxCell id="9fNEeSI4DMtGbSL5goI3-10" value="微服务" style="whiteSpace=wrap;html=1;shadow=0;strokeColor=#0e8088;fillColor=#b0e3e6;sketch=1;" vertex="1" parent="1">
          <mxGeometry x="360" y="650" width="120" height="60" as="geometry" />
        </mxCell>
        <mxCell id="9fNEeSI4DMtGbSL5goI3-15" style="edgeStyle=orthogonalEdgeStyle;rounded=0;sketch=1;orthogonalLoop=1;jettySize=auto;html=1;entryX=0.413;entryY=1.02;entryDx=0;entryDy=0;entryPerimeter=0;exitX=0.16;exitY=0.55;exitDx=0;exitDy=0;exitPerimeter=0;" edge="1" parent="1" source="9fNEeSI4DMtGbSL5goI3-11" target="9fNEeSI4DMtGbSL5goI3-2">
          <mxGeometry relative="1" as="geometry">
            <Array as="points">
              <mxPoint x="203" y="813" />
            </Array>
          </mxGeometry>
        </mxCell>
        <mxCell id="9fNEeSI4DMtGbSL5goI3-18" value="&lt;font style=&quot;font-size: 14px&quot;&gt;拉取服务&lt;/font&gt;" style="edgeLabel;html=1;align=center;verticalAlign=middle;resizable=0;points=[];" vertex="1" connectable="0" parent="9fNEeSI4DMtGbSL5goI3-15">
          <mxGeometry x="0.3128" y="-3" relative="1" as="geometry">
            <mxPoint as="offset" />
          </mxGeometry>
        </mxCell>
        <mxCell id="9fNEeSI4DMtGbSL5goI3-11" value="Eureka" style="ellipse;shape=cloud;whiteSpace=wrap;html=1;shadow=0;strokeColor=#ae4132;fillColor=#fad9d5;sketch=1;" vertex="1" parent="1">
          <mxGeometry x="230" y="769" width="130" height="80" as="geometry" />
        </mxCell>
      </root>
    </mxGraphModel>
  </diagram>
</mxfile>
